HIERARCHY
ROOT Bip01
{
  OFFSET 15.7446 31.5610 57.6474
  CHANNELS 6 Xposition Yposition Zposition Zrotation Xrotation Yrotation
  JOINT Bip01_Footsteps
  {
    OFFSET 53.2821 -0.0001 8.1953
    CHANNELS 6 Xposition Yposition Zposition Zrotation Xrotation Yrotation
    End Site
    {
      OFFSET 0 0 0
    }
  }
  JOINT b_Hips
  {
    OFFSET 0.0000 0.0000 0.0000
    CHANNELS 6 Xposition Yposition Zposition Zrotation Xrotation Yrotation
    JOINT b_Spine
    {
      OFFSET 10.4409 -1.6220 0.0000
      CHANNELS 6 Xposition Yposition Zposition Zrotation Xrotation Yrotation
      JOINT b_Spine1
      {
        OFFSET 8.8514 -0.0090 0.0000
        CHANNELS 6 Xposition Yposition Zposition Zrotation Xrotation Yrotation
        JOINT b_Spine2
        {
          OFFSET 11.3035 -0.0088 -0.0000
          CHANNELS 6 Xposition Yposition Zposition Zrotation Xrotation Yrotation
          JOINT b_Spine3
          {
            OFFSET 11.0297 -0.0113 0.0000
            CHANNELS 6 Xposition Yposition Zposition Zrotation Xrotation Yrotation
            JOINT b__Neck
            {
              OFFSET 14.9480 -3.1935 0.0000
              CHANNELS 6 Xposition Yposition Zposition Zrotation Xrotation Yrotation
              JOINT b__Neck1
              {
                OFFSET 5.4958 -0.0043 -0.0000
                CHANNELS 6 Xposition Yposition Zposition Zrotation Xrotation Yrotation
                JOINT b__Neck2
                {
                  OFFSET 5.5266 -0.0049 0.0000
                  CHANNELS 6 Xposition Yposition Zposition Zrotation Xrotation Yrotation
                  JOINT b_Head
                  {
                    OFFSET 6.1093 0.0000 -0.0000
                    CHANNELS 6 Xposition Yposition Zposition Zrotation Xrotation Yrotation
                    JOINT Bip01_HeadNub
                    {
                      OFFSET 28.6688 -0.0000 0.0000
                      CHANNELS 6 Xposition Yposition Zposition Zrotation Xrotation Yrotation
                      End Site
                      {
                        OFFSET 0 0 0
                      }
                    }
                    JOINT Dog_Jaw
                    {
                      OFFSET 0.6075 2.3575 -0.0000
                      CHANNELS 6 Xposition Yposition Zposition Zrotation Xrotation Yrotation
                      End Site
                      {
                        OFFSET 0 0 0
                      }
                    }
                  }
                }
              }
            }
            JOINT b_LeftClav
            {
              OFFSET 10.4683 2.1257 3.5190
              CHANNELS 6 Xposition Yposition Zposition Zrotation Xrotation Yrotation
              JOINT b_LeftArm
              {
                OFFSET 7.3453 0.0000 0.0000
                CHANNELS 6 Xposition Yposition Zposition Zrotation Xrotation Yrotation
                JOINT b_LeftForeArm
                {
                  OFFSET 23.3863 -0.0000 0.0000
                  CHANNELS 6 Xposition Yposition Zposition Zrotation Xrotation Yrotation
                  JOINT b_LeftHand
                  {
                    OFFSET 21.5040 -0.0000 0.0000
                    CHANNELS 6 Xposition Yposition Zposition Zrotation Xrotation Yrotation
                    JOINT b__LeftFinger
                    {
                      OFFSET 1.5926 6.2126 -0.0138
                      CHANNELS 6 Xposition Yposition Zposition Zrotation Xrotation Yrotation
                      JOINT Bip01_L_Finger0Nub
                      {
                        OFFSET 23.3657 0.0000 0.0000
                        CHANNELS 6 Xposition Yposition Zposition Zrotation Xrotation Yrotation
                        End Site
                        {
                          OFFSET 0 0 0
                        }
                      }
                    }
                  }
                }
                JOINT Dog_LeftArmor002
                {
                  OFFSET 4.2035 4.4457 12.7354
                  CHANNELS 6 Xposition Yposition Zposition Zrotation Xrotation Yrotation
                  End Site
                  {
                    OFFSET 0 0 0
                  }
                }
              }
            }
            JOINT b_RightClav
            {
              OFFSET 10.4683 2.1257 -3.5189
              CHANNELS 6 Xposition Yposition Zposition Zrotation Xrotation Yrotation
              JOINT b_RightArm
              {
                OFFSET 7.3453 0.0000 -0.0000
                CHANNELS 6 Xposition Yposition Zposition Zrotation Xrotation Yrotation
                JOINT b_RightForeArm
                {
                  OFFSET 23.3863 0.0000 -0.0000
                  CHANNELS 6 Xposition Yposition Zposition Zrotation Xrotation Yrotation
                  JOINT b_RightHand
                  {
                    OFFSET 21.5040 0.0000 0.0000
                    CHANNELS 6 Xposition Yposition Zposition Zrotation Xrotation Yrotation
                    JOINT b_RightFinger
                    {
                      OFFSET 1.5926 6.2126 0.0138
                      CHANNELS 6 Xposition Yposition Zposition Zrotation Xrotation Yrotation
                      JOINT Bip01_R_Finger0Nub
                      {
                        OFFSET 23.3657 -0.0000 0.0000
                        CHANNELS 6 Xposition Yposition Zposition Zrotation Xrotation Yrotation
                        End Site
                        {
                          OFFSET 0 0 0
                        }
                      }
                    }
                  }
                }
                JOINT Dog_RightArmor002
                {
                  OFFSET 4.2034 4.4457 -12.7351
                  CHANNELS 6 Xposition Yposition Zposition Zrotation Xrotation Yrotation
                  End Site
                  {
                    OFFSET 0 0 0
                  }
                }
              }
            }
          }
        }
      }
    }
    JOINT b_Tail001
    {
      OFFSET -4.7889 3.8598 0.8608
      CHANNELS 6 Xposition Yposition Zposition Zrotation Xrotation Yrotation
      JOINT b_Tail002
      {
        OFFSET 5.0654 0.0000 -0.0000
        CHANNELS 6 Xposition Yposition Zposition Zrotation Xrotation Yrotation
        JOINT b_Tail003
        {
          OFFSET 4.7760 0.0000 -0.0000
          CHANNELS 6 Xposition Yposition Zposition Zrotation Xrotation Yrotation
          JOINT b_Tail004
          {
            OFFSET 4.5284 -0.0000 0.0000
            CHANNELS 6 Xposition Yposition Zposition Zrotation Xrotation Yrotation
            JOINT b_Tail005
            {
              OFFSET 9.7173 -0.0000 -0.0001
              CHANNELS 6 Xposition Yposition Zposition Zrotation Xrotation Yrotation
              JOINT b_Tail006
              {
                OFFSET 8.2617 0.0001 0.0000
                CHANNELS 6 Xposition Yposition Zposition Zrotation Xrotation Yrotation
                JOINT b_Tail007
                {
                  OFFSET 9.7599 -0.0001 0.0000
                  CHANNELS 6 Xposition Yposition Zposition Zrotation Xrotation Yrotation
                  JOINT b_Tail008
                  {
                    OFFSET 11.1530 0.0000 -0.0000
                    CHANNELS 6 Xposition Yposition Zposition Zrotation Xrotation Yrotation
                    JOINT b_Tail009
                    {
                      OFFSET 10.3039 0.0000 0.0000
                      CHANNELS 6 Xposition Yposition Zposition Zrotation Xrotation Yrotation
                      End Site
                      {
                        OFFSET 0 0 0
                      }
                    }
                  }
                }
              }
            }
          }
        }
      }
    }
    JOINT Dog_LeftTail001
    {
      OFFSET -11.9878 -1.7857 10.1900
      CHANNELS 6 Xposition Yposition Zposition Zrotation Xrotation Yrotation
      JOINT Dog_LeftTail002
      {
        OFFSET 8.4424 0.0000 0.0000
        CHANNELS 6 Xposition Yposition Zposition Zrotation Xrotation Yrotation
        JOINT Dog_LeftTail003
        {
          OFFSET 9.9501 0.0000 -0.0000
          CHANNELS 6 Xposition Yposition Zposition Zrotation Xrotation Yrotation
          JOINT Dog_LeftTail004
          {
            OFFSET 9.4342 0.0000 -0.0000
            CHANNELS 6 Xposition Yposition Zposition Zrotation Xrotation Yrotation
            JOINT Dog_LeftTail005
            {
              OFFSET 9.7173 0.0001 0.0001
              CHANNELS 6 Xposition Yposition Zposition Zrotation Xrotation Yrotation
              JOINT Dog_LeftTail006
              {
                OFFSET 8.2618 -0.0000 -0.0000
                CHANNELS 6 Xposition Yposition Zposition Zrotation Xrotation Yrotation
                JOINT Dog_LeftTail007
                {
                  OFFSET 9.7599 0.0000 0.0000
                  CHANNELS 6 Xposition Yposition Zposition Zrotation Xrotation Yrotation
                  JOINT Dog_LeftTail008
                  {
                    OFFSET 11.1529 -0.0001 -0.0001
                    CHANNELS 6 Xposition Yposition Zposition Zrotation Xrotation Yrotation
                    JOINT Dog_LeftTail009
                    {
                      OFFSET 10.3039 -0.0000 0.0000
                      CHANNELS 6 Xposition Yposition Zposition Zrotation Xrotation Yrotation
                      End Site
                      {
                        OFFSET 0 0 0
                      }
                    }
                  }
                }
              }
            }
          }
        }
      }
    }
    JOINT b_LeftLegUpper
    {
      OFFSET -0.0000 0.0000 9.9422
      CHANNELS 6 Xposition Yposition Zposition Zrotation Xrotation Yrotation
      JOINT b_LeftLeg
      {
        OFFSET 25.9795 0.0000 0.0000
        CHANNELS 6 Xposition Yposition Zposition Zrotation Xrotation Yrotation
        JOINT b_LeftLeg1
        {
          OFFSET 21.2087 0.0000 -0.0000
          CHANNELS 6 Xposition Yposition Zposition Zrotation Xrotation Yrotation
          JOINT b_LeftAnkle
          {
            OFFSET 10.4341 -0.0000 0.0000
            CHANNELS 6 Xposition Yposition Zposition Zrotation Xrotation Yrotation
            JOINT b_LeftToe
            {
              OFFSET 5.6676 6.5983 0.0000
              CHANNELS 6 Xposition Yposition Zposition Zrotation Xrotation Yrotation
              JOINT Bip01_L_Toe0Nub
              {
                OFFSET 8.6279 0.0000 -0.0000
                CHANNELS 6 Xposition Yposition Zposition Zrotation Xrotation Yrotation
                End Site
                {
                  OFFSET 0 0 0
                }
              }
            }
            JOINT b_LeftToe002
            {
              OFFSET 5.6741 -2.3619 -0.5306
              CHANNELS 6 Xposition Yposition Zposition Zrotation Xrotation Yrotation
              End Site
              {
                OFFSET 0 0 0
              }
            }
          }
        }
      }
      JOINT Dog_LeftArmor001
      {
        OFFSET -2.6287 -3.4254 -3.1462
        CHANNELS 6 Xposition Yposition Zposition Zrotation Xrotation Yrotation
        End Site
        {
          OFFSET 0 0 0
        }
      }
    }
    JOINT b_RightLegUpper
    {
      OFFSET 0.0000 -0.0000 -9.9422
      CHANNELS 6 Xposition Yposition Zposition Zrotation Xrotation Yrotation
      JOINT b_RightLeg
      {
        OFFSET 25.9795 0.0000 0.0000
        CHANNELS 6 Xposition Yposition Zposition Zrotation Xrotation Yrotation
        JOINT b_RightLeg1
        {
          OFFSET 21.2087 0.0000 0.0000
          CHANNELS 6 Xposition Yposition Zposition Zrotation Xrotation Yrotation
          JOINT b_RightAnkle
          {
            OFFSET 10.4341 -0.0000 -0.0000
            CHANNELS 6 Xposition Yposition Zposition Zrotation Xrotation Yrotation
            JOINT b_RightToe
            {
              OFFSET 5.6676 6.5983 -0.0000
              CHANNELS 6 Xposition Yposition Zposition Zrotation Xrotation Yrotation
              JOINT Bip01_R_Toe0Nub
              {
                OFFSET 8.6279 -0.0000 0.0000
                CHANNELS 6 Xposition Yposition Zposition Zrotation Xrotation Yrotation
                End Site
                {
                  OFFSET 0 0 0
                }
              }
            }
            JOINT b_RightToe002
            {
              OFFSET 5.6741 -2.3620 0.5304
              CHANNELS 6 Xposition Yposition Zposition Zrotation Xrotation Yrotation
              End Site
              {
                OFFSET 0 0 0
              }
            }
          }
        }
      }
      JOINT Dog_RightArmor001
      {
        OFFSET -2.6288 -3.4254 3.1460
        CHANNELS 6 Xposition Yposition Zposition Zrotation Xrotation Yrotation
        End Site
        {
          OFFSET 0 0 0
        }
      }
    }
  }
}
MOTION
Frames: 4
Frame Time: 0.03333333
32.8192 60.8303 145.665 95.8373 -56.6864 -155.175 53.2821 -6.35e-05 8.19533 -90 -81.2558 -180 0 0 0 -89.9999 -5.43972e-14 -90 10.4409 -1.622 1.78e-05 -13.7556 0.41106 -7.52523 8.8514 -0.0089989 0 1.17048 0.544166 -11.9886 11.3035 -0.0087814 0 1.71715 2.48913 -13.501 11.0297 -0.0113029 0 2.04019 5.20587 -13.3358 14.948 -3.19349 8.6e-06 -34.7849 -27.3018 -39.5049 5.49578 -0.0042877 -1.42109e-14 -1.02139 29.5263 -5.37615 5.52657 -0.0048637 0 2.42466 3.452 1.40961 6.10934 -1.42109e-14 0 48.1934 -7.1912 1.03084 28.6688 -3.55271e-15 0 -9.54166e-15 3.18055e-15 6.36111e-15 0.607494 2.35752 -7.6e-06 -156.427 -0.000147608 180 10.4683 2.1257 3.51896 -166.643 17.2235 -76.3667 7.34534 0 1.9e-06 -89.7899 -72.9408 8.11987 23.3863 -1.9e-06 1e-06 -56.3658 0.693816 -1.19906 21.504 -1.42109e-14 0 -8.26874 -0.297058 5.90304 1.59262 6.21256 -0.0138378 8.65049 -38.3121 7.62284 23.3657 -1.42109e-14 1e-06 -6.36111e-15 -4.77083e-15 -1.59028e-15 4.20345 4.44573 12.7354 172.377 0.21838 -87.1877 10.4683 2.12572 -3.51895 178.554 11.2609 105.499 7.34534 7.10543e-15 -1.9e-06 -34.5095 76.6019 -51.0449 23.3863 1.9e-06 7.10543e-15 -29.7396 1.59028e-15 -3.57812e-15 21.504 3.8e-06 1e-06 -111.099 -14.1447 1.27564 1.59262 6.21257 0.0138388 -22.7954 -16.5661 0.871788 23.3657 0 1e-06 180 3.33958e-14 -7.95139e-16 4.20337 4.4457 -12.7351 172.377 -0.218352 87.1876 -4.78895 3.85983 0.86083 164.752 -14.2355 -13.2707 5.0654 4.578e-05 -6.84e-06 26.7686 40.9178 -23.8238 4.77605 3.648e-06 -6.432e-06 -5.73721 9.69581 -3.51015 4.52841 -1.0992e-05 2.7456e-05 3.97569e-16 0 -2.38542e-15 9.71734 -4.2e-05 -5.72e-05 1.98785e-15 9.54166e-15 -7.95139e-16 8.26175 8.01e-05 5.7e-06 3.97569e-16 9.54166e-15 -1.19271e-15 9.75986 -6.48e-05 2.86e-05 1.59028e-15 9.54166e-15 7.95139e-16 11.153 2.67e-05 -2.1e-05 2.78299e-15 9.54166e-15 -3.97569e-16 10.3039 1.14e-05 4.2e-05 -1.19271e-15 3.18055e-15 -1.59028e-15 -11.9878 -1.78568 10.19 170.606 3.62573 1.11034 8.44238 1.53e-05 4.2e-05 1.59028e-15 1.59028e-15 -6.36111e-15 9.95005 7.6e-06 -2.86e-05 -7.95139e-16 1.59028e-15 -0 9.43418 1.42109e-14 -4.58e-05 2.38542e-15 0 -0 9.71733 6.87e-05 0.0001106 7.95139e-16 0 3.18055e-15 8.26175 -2.29e-05 -4.77e-05 1.59028e-15 0 3.18055e-15 9.75994 2.86e-05 3.05e-05 1.59028e-15 0 3.18055e-15 11.1529 -7.25e-05 -5.91e-05 1.59028e-15 0 3.18055e-15 10.3039 -7.6e-06 2.84217e-14 1.59028e-15 0 3.18055e-15 -1.14e-05 1.53e-05 9.94222 -107.826 28.4193 177.164 25.9795 1e-06 1.42109e-14 -24.2856 -0.559753 -1.07357 21.2087 1.9e-06 -1e-06 47.9771 19.7361 -26.4731 10.4341 -1.9e-06 1e-06 -1.58145 -1.76104 4.87982 5.66763 6.59832 0 108.49 28.0269 -16.92 8.62785 0 2.84217e-14 -180 2.22639e-14 6.36111e-15 5.67414 -2.36194 -0.530567 -75.8081 4.38708 5.33411 -2.62874 -3.42539 -3.14618 29.7499 1.82752 90.2264 1.53e-05 -1.53e-05 -9.94222 -111.473 -17.3103 172.367 25.9795 7.10543e-15 1e-06 -30.7481 0.125598 2.59434 21.2087 0 1.9e-06 37.0759 -9.11921 5.25289 10.4341 -1.9e-06 -1e-06 -16.5594 11.7073 -1.79777 5.66763 6.59831 0 91.4038 -2.21045 1.83251 8.62785 3.55271e-15 0 -3.97569e-16 1.59028e-15 -0 5.67412 -2.36198 0.530355 -75.808 -4.38692 -5.33418 -2.62878 -3.42545 3.14601 29.7498 -1.82753 -90.2266
34.3452 60.4576 144.885 94.002 -51.7563 -156.476 53.2821 -6.35e-05 8.19533 -90 -81.2558 -180 0 0 0 -89.9999 -4.1675e-14 -90 10.4409 -1.622 1.78e-05 -13.8471 1.5933 -7.49009 8.8514 -0.0089989 0 1.07506 1.05707 -11.4095 11.3035 -0.0087814 -1.42109e-14 1.86035 1.83582 -13.2097 11.0297 -0.0113029 0 2.11353 3.96068 -11.4537 14.948 -3.19349 8.6e-06 -31.7778 -29.764 -37.195 5.49578 -0.0042877 -7.10543e-15 -4.53893 29.3476 -4.60724 5.52657 -0.0048637 0 2.14912 3.92698 1.16438 6.10934 0 7.10543e-15 48.5254 -7.28246 1.43929 28.6688 3.55271e-15 0 -3.18055e-15 0 -0 0.607494 2.35752 -7.6e-06 -156.427 -0.000147608 180 10.4683 2.1257 3.51896 -168.992 12.6185 -75.6344 7.34534 0 1.9e-06 -95.5696 -81.4667 2.63929 23.3863 -1.9e-06 1e-06 -59.3085 0.75446 -1.16186 21.504 0 7.10543e-15 -32.7922 -2.72709 5.24572 1.59262 6.21256 -0.0138378 -9.67208 -15.9637 -1.47123 23.3657 0 1e-06 -7.95139e-16 4.69629e-15 -1.98785e-16 4.20345 4.44573 12.7354 172.377 0.21838 -87.1877 10.4683 2.12572 -3.51895 -179.384 10.9968 102.237 7.34534 0 -1.9e-06 -26.8014 73.904 -57.4905 23.3863 1.9e-06 1.42109e-14 -32.2013 4.77083e-15 -1.23246e-14 21.504 3.8e-06 1e-06 -110.403 -16.0044 2.57112 1.59262 6.21257 0.0138388 -20.589 -13.3818 1.56738 23.3657 0 1e-06 180 6.52014e-14 1.11319e-14 4.20337 4.4457 -12.7351 172.377 -0.218352 87.1876 -4.78895 3.85983 0.86083 164.028 -13.3733 -14.6891 5.0654 4.578e-05 -6.84e-06 24.3657 30.6904 -25.383 4.77605 3.648e-06 -6.432e-06 -5.36941 9.56592 -2.83248 4.52841 -1.0992e-05 2.7456e-05 1.98785e-15 -6.36111e-15 -0 9.71734 -4.2e-05 -5.72e-05 3.97569e-16 3.18055e-15 1.59028e-15 8.26175 8.01e-05 5.7e-06 1.19271e-15 -6.36111e-15 3.97569e-16 9.75986 -6.48e-05 2.86e-05 7.95139e-16 3.18055e-15 7.95139e-16 11.153 2.67e-05 -2.1e-05 7.95139e-16 3.18055e-15 7.95139e-16 10.3039 1.14e-05 4.2e-05 7.95139e-16 0 3.97569e-16 -11.9878 -1.78568 10.19 170.606 3.62573 1.11034 8.44238 1.53e-05 4.2e-05 -8.82781e-32 -1.59028e-15 -3.18055e-15 9.95005 7.6e-06 -2.86e-05 1.59028e-15 1.59028e-15 6.36111e-15 9.43418 -7.10543e-15 -4.58e-05 1.59028e-15 0 3.18055e-15 9.71733 6.87e-05 0.0001106 1.59028e-15 0 6.36111e-15 8.26175 -2.29e-05 -4.77e-05 1.59028e-15 0 6.36111e-15 9.75994 2.86e-05 3.05e-05 3.53113e-31 -3.18055e-15 6.36111e-15 11.1529 -7.25e-05 -5.91e-05 1.59028e-15 0 3.18055e-15 10.3039 -7.6e-06 2.84217e-14 2.38542e-15 0 3.18055e-15 -1.14e-05 1.53e-05 9.94222 -107.286 24.2119 176.778 25.9795 1e-06 1.42109e-14 -25.1464 -0.543562 -1.08186 21.2087 1.9e-06 -1e-06 46.798 16.3989 -25.4005 10.4341 -1.9e-06 1e-06 -0.201033 -1.64274 4.92082 5.66763 6.59832 0 108.271 28.8917 -18.3364 8.62785 0 0 -180 1.59028e-14 6.36111e-15 5.67414 -2.36194 -0.530567 -75.8081 4.38708 5.33411 -2.62874 -3.42539 -3.14618 29.7499 1.82752 90.2264 1.53e-05 -1.53e-05 -9.94222 -112.629 -13.392 172.099 25.9795 7.10543e-15 1e-06 -37.1898 -0.166461 2.59204 21.2087 -7.10543e-15 1.9e-06 40.2532 -10.8634 7.39499 10.4341 -1.9e-06 -1e-06 -17.6451 12.0698 -2.70044 5.66763 6.59831 0 90.61 -6.04938 3.92472 8.62785 -7.10543e-15 0 1.59028e-15 0 -9.54166e-15 5.67412 -2.36198 0.530356 -75.808 -4.38692 -5.33418 -2.62878 -3.42545 3.14601 29.7498 -1.82753 -90.2266
35.3148 59.781 144.121 93.3083 -46.2941 -158.254 53.2821 -6.35e-05 8.19533 -90 -81.2558 -180 0 0 0 -89.9999 -4.1675e-14 -90 10.4409 -1.622 1.78e-05 -13.5834 2.03475 -7.14501 8.8514 -0.0089989 1.42109e-14 1.16573 1.38961 -10.2324 11.3035 -0.0087814 0 1.47115 1.14519 -12.3578 11.0297 -0.0113029 0 1.83494 2.9591 -10.0246 14.948 -3.19349 8.6e-06 -31.3467 -28.9113 -35.0843 5.49578 -0.0042877 0 -5.64941 28.7783 -3.59017 5.52657 -0.0048637 0 2.09677 3.60792 1.30141 6.10934 0 -7.10543e-15 47.9109 -7.10976 1.63908 28.6688 0 -3.55271e-15 6.36111e-15 -3.18055e-15 -6.36111e-15 0.607494 2.35752 -7.6e-06 -156.427 -0.000147608 180 10.4683 2.1257 3.51896 -172.182 11.2021 -76.3802 7.34534 -3.55271e-15 1.9e-06 118.881 -81.7124 -142.802 23.3863 -1.9e-06 1e-06 -47.6638 0.504397 -1.29023 21.504 0 0 -75.1131 -5.54628 2.0459 1.59262 6.21256 -0.0138378 -3.36218 -12.546 0.874359 23.3657 0 1e-06 3.18055e-15 0 -3.97569e-15 4.20345 4.44573 12.7354 172.377 0.21838 -87.1877 10.4683 2.12572 -3.51895 -177.966 9.68378 99.7269 7.34534 -7.10543e-15 -1.9e-06 -26.1382 72.0244 -57.4193 23.3863 1.9e-06 -1.42109e-14 -30.5759 1.59028e-15 -2.5842e-15 21.504 3.8e-06 1e-06 -109.206 -16.1975 4.37682 1.59262 6.21257 0.0138388 -19.4108 -10.2372 2.17347 23.3657 7.10543e-15 1e-06 180 4.29375e-14 2.38542e-15 4.20337 4.4457 -12.7351 172.377 -0.218352 87.1876 -4.78895 3.85983 0.86083 162.518 -13.7098 -15.1692 5.0654 4.578e-05 -6.84e-06 18.3507 21.9217 -24.3211 4.77605 3.648e-06 -6.432e-06 -5.29751 9.55128 -2.59973 4.52841 -1.0992e-05 2.7456e-05 -3.97569e-16 -3.18055e-15 7.95139e-16 9.71734 -4.2e-05 -5.72e-05 -1.98785e-15 0 7.95139e-16 8.26175 8.01e-05 5.7e-06 -2.38542e-15 0 -0 9.75986 -6.48e-05 2.86e-05 3.97569e-16 3.18055e-15 3.97569e-15 11.153 2.67e-05 -2.1e-05 -2.38542e-15 0 2.38542e-15 10.3039 1.14e-05 4.2e-05 -1.59028e-15 -3.18055e-15 1.59028e-15 -11.9878 -1.78568 10.19 170.606 3.62573 1.11034 8.44238 1.53e-05 4.2e-05 -0 -1.59028e-15 -0 9.95005 7.6e-06 -2.86e-05 1.59028e-15 -1.59028e-15 -0 9.43418 1.42109e-14 -4.58e-05 1.59028e-15 0 -0 9.71733 6.87e-05 0.0001106 1.59028e-15 0 -6.36111e-15 8.26175 -2.29e-05 -4.77e-05 -0 0 -3.18055e-15 9.75994 2.86e-05 3.05e-05 1.59028e-15 1.59028e-15 6.36111e-15 11.1529 -7.25e-05 -5.91e-05 1.76556e-31 -3.18055e-15 3.18055e-15 10.3039 -7.6e-06 -1.42109e-14 1.59028e-15 0 -3.18055e-15 -1.14e-05 1.53e-05 9.94222 -106.441 22.5375 177.385 25.9795 1e-06 0 -27.7445 -0.493957 -1.10539 21.2087 1.9e-06 -1e-06 47.7901 15.8254 -25.322 10.4341 -1.9e-06 1e-06 -0.60814 -1.67773 4.90902 5.66763 6.59832 -1.42109e-14 105.876 29.0516 -18.8743 8.62785 0 0 -180 6.36111e-15 -6.36111e-15 5.67414 -2.36194 -0.530567 -75.8081 4.38708 5.33411 -2.62874 -3.42539 -3.14618 29.7499 1.82752 90.2264 1.53e-05 -1.53e-05 -9.94222 -114.131 -10.8426 171.703 25.9795 1.42109e-14 1e-06 -45.3954 -0.534945 2.54172 21.2087 -7.10543e-15 1.9e-06 49.0443 -14.4141 11.802 10.4341 -1.9e-06 -1e-06 -16.5523 11.2914 -4.61357 5.66763 6.59831 0 87.0707 -4.43747 2.69061 8.62785 0 0 -1.59028e-15 1.59028e-15 3.18055e-15 5.67412 -2.36198 0.530356 -75.808 -4.38692 -5.33418 -2.62878 -3.42545 3.14601 29.7498 -1.82753 -90.2266
35.9888 59.2099 143.437 93.7205 -39.8405 -158.837 53.2821 -6.35e-05 8.19533 -90 -81.2558 -180 0 0 0 -89.9999 -4.1675e-14 -90 10.4409 -1.622 1.78e-05 -13.4808 1.40959 -5.94749 8.8514 -0.0089989 0 0.969664 1.34512 -8.66616 11.3035 -0.0087814 1.42109e-14 0.541919 0.350945 -11.1382 11.0297 -0.0113029 0 0.743669 2.15434 -9.03453 14.948 -3.19349 8.6e-06 -34.3043 -25.151 -30.909 5.49578 -0.0042877 -1.42109e-14 -2.99001 28.7749 -4.76786 5.52657 -0.0048637 0 2.2023 3.23422 1.44935 6.10934 0 0 47.1415 -7.11851 1.00673 28.6688 7.10543e-15 -7.10543e-15 -6.36111e-15 1.59028e-15 -0 0.607494 2.35752 -7.6e-06 -156.427 -0.000147608 180 10.4683 2.1257 3.51896 -174.113 10.5244 -82.6263 7.34534 0 1.9e-06 109.186 -59.2501 -153.88 23.3863 -1.9e-06 1e-06 -35.9229 0.231257 -1.36587 21.504 0 -7.10543e-15 -80.8734 -5.72286 1.47987 1.59262 6.21256 -0.0138378 3.84905 -11.751 1.30637 23.3657 -7.10543e-15 1e-06 2.64834e-31 -4.77083e-15 3.18055e-15 4.20345 4.44573 12.7354 172.377 0.21838 -87.1877 10.4683 2.12572 -3.51895 -178.107 8.65658 100.655 7.34534 0 -1.9e-06 -22.1197 69.9562 -63.1643 23.3863 1.9e-06 0 -29.2491 0 2.18663e-15 21.504 3.8e-06 1e-06 -106.016 -15.4577 5.28816 1.59262 6.21257 0.0138388 -18.115 -8.84075 2.19327 23.3657 7.10543e-15 1e-06 180 2.32578e-14 2.66371e-14 4.20337 4.4457 -12.7351 172.377 -0.218352 87.1876 -4.78895 3.85983 0.86083 163.257 -13.2738 -12.6109 5.0654 4.578e-05 -6.84e-06 13.9984 25.8589 -19.0142 4.77605 3.648e-06 -6.432e-06 -5.60968 9.69088 -3.2087 4.52841 -1.0992e-05 2.7456e-05 -0 0 -6.36111e-15 9.71734 -4.2e-05 -5.72e-05 3.18055e-15 -9.54166e-15 -3.18055e-15 8.26175 8.01e-05 5.7e-06 -0 0 -3.18055e-15 9.75986 -6.48e-05 2.86e-05 3.53113e-31 3.18055e-15 -6.36111e-15 11.153 2.67e-05 -2.1e-05 1.59028e-15 3.18055e-15 -3.18055e-15 10.3039 1.14e-05 4.2e-05 -0 3.18055e-15 -0 -11.9878 -1.78568 10.19 170.606 3.62573 1.11034 8.44238 1.53e-05 4.2e-05 1.59028e-15 0 -3.18055e-15 9.95005 7.6e-06 -2.86e-05 4.41391e-32 -7.95139e-16 3.18055e-15 9.43418 -1.42109e-14 -4.58e-05 -3.53113e-31 3.18055e-15 6.36111e-15 9.71733 6.87e-05 0.0001106 -4.41391e-32 7.95139e-16 3.18055e-15 8.26175 -2.29e-05 -4.77e-05 -1.59028e-15 -7.95139e-16 -0 9.75994 2.86e-05 3.05e-05 -1.59028e-15 0 6.36111e-15 11.1529 -7.25e-05 -5.91e-05 -3.18055e-15 -2.38542e-15 -0 10.3039 -7.6e-06 1.42109e-14 -1.59028e-15 7.95139e-16 3.18055e-15 -1.14e-05 1.53e-05 9.94222 -107.465 20.1909 179.162 25.9795 1e-06 0 -31.7147 -0.41623 -1.13694 21.2087 1.9e-06 -1e-06 50.5778 17.8558 -25.5251 10.4341 -1.9e-06 1e-06 -2.46578 -1.83629 4.85206 5.66763 6.59832 1.42109e-14 102.984 28.4215 -18.0661 8.62785 0 1.42109e-14 -180 9.54166e-15 -1.27222e-14 5.67414 -2.36194 -0.530567 -75.8081 4.38708 5.33411 -2.62874 -3.42539 -3.14618 29.7499 1.82752 90.2264 1.53e-05 -1.53e-05 -9.94222 -116.647 -12.0706 171.72 25.9795 7.10543e-15 1e-06 -50.7428 -0.769624 2.4808 21.2087 -7.10543e-15 1.9e-06 58.8521 -13.5772 13.176 10.4341 -1.9e-06 -1e-06 -14.0295 7.7417 -5.70455 5.66763 6.59831 0 81.7908 -0.491434 -0.814026 8.62785 0 0 4.41391e-32 -7.95139e-16 3.18055e-15 5.67412 -2.36198 0.530355 -75.808 -4.38692 -5.33418 -2.62878 -3.42545 3.14601 29.7498 -1.82753 -90.2266
